# xmcd
#
# Track frame offsets: 
#        150
#        19250
#        40798
#        61653
#        80395
#        101660
#        128523
#        143858
#        162415
#        177488
#
# Disc length: 2658 seconds
#
# Revision: 4
# Processed by: cddbd v1.5PL3 Copyright (c) Steve Scherf et al.
# Submitted via: ExactAudioCopy v0.95a4
#
DISCID=7c0a600a
DTITLE=Emmanuel - Entre Lunas
DYEAR=1988
DGENRE=Latin
TTITLE0=Grito De Dos
TTITLE1=Una Vieja Cancion
TTITLE2=Que Sera
TTITLE3=La Noche Arde
TTITLE4=Esos Ojos
TTITLE5=La Ultima Luna
TTITLE6=Y La Lluvia Entro
TTITLE7=En La Noche
TTITLE8=Desesperado
TTITLE9=No Me Sientes
EXTD=YEAR: 1988
EXTT0=
EXTT1=
EXTT2=
EXTT3=
EXTT4=
EXTT5=
EXTT6=
EXTT7=
EXTT8=
EXTT9=
PLAYORDER=
